#!OML:ASF F:\VICON\USERDATA\INSTALL\rory3\rory3.ASF
:FULLY-SPECIFIED
:DEGREES
715
root 3.33429 15.2071 -6.14177 35.1044 -52.3067 -11.1173
lowerback -15.2503 1.61474 0.0337242
upperback -10.8863 1.74824 2.3771
thorax -3.09566 0.796469 2.70017
lowerneck -16.3235 -1.61874 -0.974545
upperneck 26.9696 -4.16488 6.17748
head 11.6843 -1.30038 1.81682
rclavicle -3.59055e-015 4.60187e-014
rhumerus -66.7102 -45.9438 -27.9838
rradius 17.683
rwrist 6.65049
rhand -3.52334 12.244
rfingers 7.12502
rthumb 22.2116 -16.4998
lclavicle -3.59055e-015 4.60187e-014
lhumerus -82.3346 37.2592 22.9727
lradius 15.0827
lwrist -35.9827
lhand 10.9189 25.1976
lfingers 7.12502
lthumb 35.9974 51.5147
rfemur 161.667 -190.919 -149.207
rtibia 35.0181
rfoot -54.0621 -28.6454
rtoes 7.63595
lfemur -81.8082 25.0585 -42.4565
ltibia 66.7992
lfoot -37.5181 30.9149
ltoes 13.1396
716
root 3.29899 15.182 -6.11183 34.3752 -52.7951 -10.3278
lowerback -14.7861 1.55887 -1.08775
upperback -11.0637 1.80666 2.28549
thorax -3.57598 0.893396 3.22862
lowerneck -16.1866 -1.73736 -1.08771
upperneck 26.8915 -4.31483 6.24078
head 11.6372 -1.37614 1.83673
rclavicle -4.43228e-014 -4.17448e-015
rhumerus -65.8017 -45.1784 -29.1639
rradius 17.7871
rwrist 4.73675
rhand -4.01754 11.532
rfingers 7.12502
rthumb 21.7371 -17.2675
lclavicle -4.43228e-014 -4.17448e-015
lhumerus -82.0612 36.5299 24.292
lradius 15.1045
lwrist -35.9397
lhand 11.4196 24.2047
lfingers 7.12502
lthumb 36.4716 50.404
rfemur 161.919 -191.952 -149.832
rtibia 35.1024
rfoot -54.528 -29.0893
rtoes 8.25114
lfemur -81.6729 25.0154 -42.8875
ltibia 67.1814
lfoot -37.451 31.5417
ltoes 11.9453
717
root 3.23442 15.1621 -6.00889 34.8962 -52.725 -10.8702
lowerback -15.6071 1.76643 -0.482766
upperback -10.9933 1.99691 2.24484
thorax -3.0533 0.944459 2.89118
lowerneck -15.8739 -1.91881 -1.42285
upperneck 26.5841 -4.53884 6.53568
head 11.4818 -1.48659 1.96734
rclavicle -2.72087e-014 3.98563e-014
rhumerus -65.4912 -44.8765 -29.4418
rradius 17.7683
rwrist 4.02053
rhand -4.63921 11.0458
rfingers 7.12502
rthumb 21.14 -17.8216
lclavicle -2.72087e-014 3.98563e-014
lhumerus -81.9184 36.0294 25.1259
lradius 15.0991
lwrist -36.2783
lhand 11.664 22.9441
lfingers 7.12502
lthumb 36.7028 49.0848
rfemur 162.338 -190.644 -149.67
rtibia 35.0854
rfoot -53.1933 -29.4342
rtoes 4.61311
lfemur -81.6448 25.0662 -42.4832
ltibia 67.7859
lfoot -37.8269 31.7693
ltoes 11.7366
718
root 3.18753 15.1486 -5.94716 34.5065 -53.0895 -10.4576
lowerback -15.6554 1.82395 -0.93695
upperback -11.036 2.12482 2.05579
thorax -3.09327 1.02868 2.96415
lowerneck -15.8221 -2.03483 -1.54161
upperneck 26.6274 -4.75791 6.79977
head 11.5105 -1.5668 2.05407
rclavicle -3.66758e-014 1.64991e-014
rhumerus -66.6179 -45.4149 -27.7703
rradius 17.6395
rwrist 5.02912
rhand -4.58771 10.6357
rfingers 7.12502
rthumb 21.1895 -18.2263
lclavicle -3.66758e-014 1.64991e-014
lhumerus -81.9214 35.6635 25.3546
lradius 14.9992
lwrist -36.8289
lhand 12.0233 21.7998
lfingers 7.12502
lthumb 37.0428 47.8532
rfemur 162.654 -190.696 -150.171
rtibia 35.1897
rfoot -52.7612 -30.072
rtoes 2.41025
lfemur -81.3235 25.1385 -42.7657
ltibia 68.0535
lfoot -38.4737 31.7056
ltoes 11.9021
719
root 3.14773 15.1315 -5.87821 34.4286 -53.5767 -10.393
lowerback -15.6859 1.97123 -1.1677
upperback -11.0845 2.34319 1.88153
thorax -3.14616 1.14597 2.93718
lowerneck -15.9398 -2.0922 -1.48579
upperneck 26.7568 -4.91332 6.93837
head 11.5963 -1.61012 2.07424
rclavicle -7.28794e-014 2.16675e-014
rhumerus -67.6274 -45.9314 -26.3054
rradius 17.5913
rwrist 5.4608
rhand -4.24273 10.2998
rfingers 7.12502
rthumb 21.5209 -18.5246
lclavicle -7.28794e-014 2.16675e-014
lhumerus -81.5395 35.2643 26.0521
lradius 14.969
lwrist -36.7989
lhand 12.3991 20.8735
lfingers 7.12502
lthumb 37.3981 46.834
rfemur 162.995 -190.852 -150.619
rtibia 35.2075
rfoot -52.7818 -29.4866
rtoes 2.48866
lfemur -81.0769 25.4001 -43.0594
ltibia 68.3364
lfoot -39.3335 31.279
ltoes 12.2625
